<svg xmlns="http://www.w3.org/2000/svg" viewBox="0 0 256 256" width="48" height="48" fill="#cecece">
    <path d="M25 184c-.47 2.68-.227 4.354 1 6s4.563 2.464 8 2c3.437-.464 5.078-.958 6-4 .922-3.042 40.167-102.359 40.167-102.359 1.012-2.563 2.655-2.563 3.676.018l15.08 38.128c1.218 3.077 4.9 5.591 8.21 5.616L188 130s26.23 53.28 27.993 56.358c1.764 3.079 4.94 5.225 7.237 5.24 2.297.016 5.15-2.404 6.552-3.598 1.402-1.194 2.88-3.828 1.661-6.824-1.218-2.995-29.623-58.905-31.318-61.992C198.43 116.096 196.266 114 192 114s-76.877-.318-76.877-.318c-2.207-.01-4.608-1.691-5.37-3.777 0 0-12.403-33.889-13.717-37.905-1.314-4.016-6.912-7.827-14.036-7.827S70.086 66.695 68 72c-2.086 5.305-42.53 109.32-43 112z"/>
</svg>