<svg xmlns="http://www.w3.org/2000/svg" width="24" height="24" viewBox="0 0 24 24" role="img" aria-label="Hex view icon">
    <path d="M4,0H12V12H0V4A4,4 0 0 1 4,0Z" fill="#7CCB7A"/>
    <path d="M12,0H20A4,4 0 0 1 24,4V12H12Z" fill="#34B8B6"/>
    <path d="M0,12H12V24H4A4,4 0 0 1 0,20V12Z" fill="#4DA3FF"/>
    <path d="M12,12H24V20A4,4 0 0 1 20,24H12Z" fill="#E46AAE"/>

    <g fill="#0B0F14" fill-rule="nonzero">
        <path d="M10 0 207 717H392L590 0H445L402 177H195L151 0ZM269 473 225 297H373L331 473Q323 507 315.5 540.0Q308 573 300 607Q293 573 285.0 540.0Q277 507 269 473Z" transform="translate(3.2245 9.3167) scale(0.009252 -0.009252)"/>
        <path d="M253 -10Q208 -10 160.5 0.0Q113 10 76 29V159Q120 137 167.0 126.5Q214 116 255 116Q373 116 373 222Q373 265 356.0 290.0Q339 315 312.0 326.0Q285 337 254 337Q226 337 197.0 332.5Q168 328 148 320L88 350L116 714H486V590H246L235 446Q258 451 277.5 452.5Q297 454 311 454Q372 454 420.5 428.5Q469 403 497.0 353.5Q525 304 525 232Q525 152 489.0 98.0Q453 44 391.5 17.0Q330 -10 253 -10Z" transform="translate(15.2199 9.2566) scale(0.009252 -0.009252)"/>
        <path d="M187 -10Q165 -10 142.5 -8.5Q120 -7 103 -3V118Q144 108 193 108Q302 108 349.5 166.5Q397 225 405 331H399Q353 250 248 250Q154 250 104.5 310.5Q55 371 55 474Q55 590 117.0 657.5Q179 725 291 725Q407 725 476.0 640.0Q545 555 545 394Q545 193 457.0 91.5Q369 -10 187 -10ZM291 366Q333 366 364.0 396.0Q395 426 395 479Q395 533 368.0 565.5Q341 598 294 598Q201 598 201 476Q201 424 223.0 395.0Q245 366 291 366Z" transform="translate(3.2245 21.3075) scale(0.009252 -0.009252)"/>
        <path d="M80 0V714H303Q421 714 483.0 672.5Q545 631 545 539Q545 474 516.0 432.0Q487 390 438 379V374Q493 361 526.5 322.0Q560 283 560 209Q560 111 498.5 55.5Q437 0 327 0ZM302 433Q355 433 376.5 452.5Q398 472 398 514Q398 557 375.0 576.0Q352 595 297 595H215V433ZM313 119Q367 119 388.0 145.0Q409 171 409 217Q409 263 387.5 286.5Q366 310 308 310H215V119Z" transform="translate(15.0395 21.3029) scale(0.009252 -0.009252)"/>
    </g>
</svg>
