<svg height="48" width="48" xmlns="http://www.w3.org/2000/svg" viewBox="0 0 26 26" fill="#cecece">
<g>
	<path d="M16.782,8.549l-5.545,1.697c-0.672,0.191-1.217,0.893-1.217,1.564v4.875c0,0,0,0.078,0,0.081
		c0,0-0.402-0.271-1.298-0.145c-1.313,0.187-2.38,1.195-2.38,2.252c0,1.06,1.066,1.707,2.38,1.521
		c1.314-0.185,2.279-1.163,2.279-2.223c0,0,0-3.63,0-4.1c0-0.469,0.564-0.67,0.564-0.67l4.905-1.537c0,0,0.542-0.183,0.542,0.32
		c0,0.502,0,3.61,0,3.61s0,0,0,0.001c0,0-0.5-0.287-1.394-0.179c-1.316,0.16-2.382,1.148-2.382,2.206
		c0,1.059,1.065,1.728,2.382,1.569c1.314-0.161,2.38-1.148,2.38-2.206V9.419C18,8.747,17.454,8.357,16.782,8.549z"/>
	<path d="M23,4.5H3c-1.656,0-3,1.344-3,3v14c0,1.656,1.344,3,3,3h20c1.656,0,3-1.344,3-3v-14
		C26,5.844,24.656,4.5,23,4.5z M24,21.5c0,0.552-0.448,1-1,1H3c-0.552,0-1-0.448-1-1v-14c0-0.552,0.448-1,1-1h20
		c0.552,0,1,0.448,1,1V21.5z"/>
	<path d="M8,1.5H3c-1.656,0-3,1.344-3,3v4c0,0,0.302-3,3-3h8v-1C11,2.844,9.656,1.5,8,1.5z"/>
</g>
</svg>