<svg fill="#cecece" height="48" width="48" xmlns="http://www.w3.org/2000/svg"
	 viewBox="0 0 512 512">
<g>
	<g>
		<g>
			<path d="M256,42.667c-140.849,0-256,115.151-256,256C0,310.449,9.551,320,21.333,320c11.782,0,21.333-9.551,21.333-21.333
				c0-117.285,96.049-213.333,213.333-213.333s213.333,96.049,213.333,213.333c0,11.782,9.551,21.333,21.333,21.333
				S512,310.449,512,298.667C512,157.818,396.849,42.667,256,42.667z"/>
			<path d="M361.602,214.398c-0.047-0.047-0.098-0.085-0.145-0.131c-27.012-26.942-64.287-43.6-105.457-43.6
				c-82.481,0-149.333,66.853-149.333,149.333S173.519,469.333,256,469.333S405.333,402.481,405.333,320
				c0-41.17-16.658-78.445-43.6-105.457C361.688,214.496,361.649,214.444,361.602,214.398z M256,426.667
				c-58.917,0-106.667-47.75-106.667-106.667S197.083,213.333,256,213.333c21.742,0,41.959,6.509,58.821,17.676l-73.906,73.906
				c-8.331,8.331-8.331,21.839,0,30.17s21.839,8.331,30.17,0l73.906-73.906c11.167,16.862,17.676,37.079,17.676,58.821
				C362.667,378.917,314.917,426.667,256,426.667z"/>
		</g>
	</g>
</g>
</svg>